<svg width="2378" height="3368" viewBox="0 0 2378 3368" fill="none" xmlns="http://www.w3.org/2000/svg">
<rect width="2377.35" height="3367.91" fill="#F3ECDD"/>
<path d="M943.256 2764.05C943.63 2766.67 943.88 2768.91 944.005 2770.79C944.13 2772.53 944.192 2774.41 944.192 2776.4C944.192 2782.02 943.381 2787.32 941.758 2792.31C940.261 2797.31 938.077 2801.74 935.207 2805.6C932.336 2809.47 928.78 2812.53 924.537 2814.78C920.418 2817.02 915.738 2818.15 910.497 2818.15C905.879 2818.15 901.761 2817.34 898.142 2815.71C894.648 2813.97 891.653 2811.72 889.157 2808.97C886.786 2806.1 884.976 2802.86 883.728 2799.24C882.48 2795.5 881.856 2791.56 881.856 2787.45C881.856 2781.96 882.917 2776.34 885.038 2770.6C887.16 2764.86 890.155 2759.3 894.024 2753.94C897.893 2748.57 902.572 2743.52 908.063 2738.78C913.679 2734.03 919.919 2729.92 926.783 2726.42C933.771 2722.8 941.259 2719.99 949.246 2718C957.358 2715.88 965.907 2714.82 974.892 2714.82C982.13 2714.82 988.807 2715.5 994.922 2716.87C1001.04 2718.25 1006.34 2720.18 1010.83 2722.68C1015.83 2719.93 1020.38 2717.93 1024.5 2716.69C1028.74 2715.31 1032.86 2714.32 1036.85 2713.69V2715.94C1032.86 2716.56 1028.99 2717.5 1025.25 2718.75C1021.5 2719.87 1017.63 2721.74 1013.64 2724.36C1017.63 2727.61 1020.63 2731.04 1022.63 2734.66C1024.75 2738.15 1025.81 2742.52 1025.81 2747.76C1025.81 2752.5 1024.75 2756.81 1022.63 2760.68C1020.51 2764.55 1017.76 2767.92 1014.39 2770.79C1011.02 2773.53 1007.21 2775.84 1002.97 2777.71C998.728 2779.58 994.485 2780.89 990.242 2781.64V2782.02C993.861 2782.14 997.231 2782.77 1000.35 2783.89C1003.47 2784.89 1006.15 2786.39 1008.4 2788.38C1010.77 2790.25 1012.58 2792.69 1013.83 2795.68C1015.2 2798.55 1015.89 2801.99 1015.89 2805.98C1015.89 2812.09 1014.45 2817.83 1011.58 2823.2C1008.71 2828.44 1005.09 2833.06 1000.72 2837.05C996.357 2840.92 991.49 2843.98 986.124 2846.23C980.757 2848.47 975.516 2849.6 970.399 2849.6C963.286 2849.6 957.545 2848.1 953.177 2845.1C948.934 2841.98 946.813 2838.05 946.813 2833.31C946.813 2830.19 947.749 2827.51 949.621 2825.26C951.617 2823.01 954.238 2821.89 957.483 2821.89C959.48 2821.89 961.227 2822.64 962.724 2824.14C960.603 2824.51 959.105 2825.76 958.232 2827.88C957.358 2829.88 956.921 2832.44 956.921 2835.56C956.921 2838.93 958.169 2841.73 960.665 2843.98C963.161 2846.23 966.343 2847.35 970.212 2847.35C975.953 2847.35 980.945 2846.16 985.188 2843.79C989.556 2841.3 993.175 2838.05 996.045 2834.06C998.915 2830.06 1001.04 2825.51 1002.41 2820.39C1003.91 2815.28 1004.66 2810.03 1004.66 2804.67C1004.66 2800.67 1003.97 2797.37 1002.6 2794.75C1001.22 2792 999.352 2789.82 996.981 2788.2C994.61 2786.57 991.802 2785.45 988.557 2784.83C985.437 2784.2 982.068 2783.89 978.449 2783.89V2781.64C984.064 2781.64 989.119 2780.71 993.611 2778.84C998.229 2776.96 1002.16 2774.34 1005.4 2770.97C1008.65 2767.6 1011.15 2763.61 1012.89 2758.99C1014.76 2754.38 1015.7 2749.38 1015.7 2744.02C1015.7 2741.15 1015.14 2738.34 1014.02 2735.59C1012.89 2732.85 1011.33 2730.41 1009.34 2728.29C1003.35 2733.53 997.667 2740.21 992.301 2748.32C987.06 2756.43 981.756 2765.05 976.389 2774.16C971.148 2783.27 965.719 2792.38 960.104 2801.49C954.613 2810.6 948.622 2818.83 942.133 2826.2C935.768 2833.56 928.78 2839.55 921.167 2844.17C913.554 2848.78 905.068 2851.09 895.709 2851.09C889.219 2851.09 884.102 2849.72 880.359 2846.97C876.615 2844.23 874.743 2840.92 874.743 2837.05C874.743 2834.56 875.429 2832.62 876.802 2831.25C878.299 2829.75 880.109 2829 882.231 2829C884.352 2829 885.912 2829.69 886.91 2831.06C888.034 2832.31 888.595 2833.93 888.595 2835.93C888.595 2837.68 887.971 2839.17 886.723 2840.42C885.6 2841.55 884.165 2842.11 882.418 2842.11C882.667 2843.36 883.291 2844.42 884.29 2845.29C885.288 2846.16 886.411 2846.91 887.659 2847.54C889.032 2848.04 890.405 2848.35 891.777 2848.47C893.15 2848.72 894.336 2848.85 895.334 2848.85C901.574 2848.85 907.065 2847.66 911.807 2845.29C916.55 2842.92 920.98 2839.55 925.098 2835.18C929.341 2830.69 933.46 2825.32 937.453 2819.08C941.571 2812.72 946.002 2805.6 950.744 2797.74C955.736 2789.63 960.353 2782.02 964.596 2774.9C968.964 2767.67 973.332 2760.99 977.7 2754.87C982.068 2748.76 986.56 2743.21 991.178 2738.21C995.92 2733.22 1001.1 2728.98 1006.72 2725.49C1002.72 2722.24 997.854 2720.06 992.114 2718.93C986.373 2717.69 980.321 2717.06 973.956 2717.06C962.35 2717.06 951.368 2719.06 941.01 2723.05C930.652 2726.92 921.604 2732.1 913.866 2738.59C906.129 2744.95 899.952 2752.32 895.334 2760.68C890.842 2768.91 888.595 2777.46 888.595 2786.32C888.595 2789.69 889.032 2793.19 889.906 2796.81C890.779 2800.3 892.089 2803.48 893.837 2806.35C895.709 2809.1 898.017 2811.41 900.763 2813.28C903.508 2815.03 906.753 2815.9 910.497 2815.9C915.114 2815.9 919.357 2814.9 923.226 2812.91C927.095 2810.91 930.402 2808.16 933.148 2804.67C935.893 2801.17 938.015 2796.99 939.512 2792.13C941.134 2787.13 941.946 2781.77 941.946 2776.03C941.946 2774.03 941.883 2772.1 941.758 2770.22C941.634 2768.23 941.446 2766.23 941.197 2764.23L943.256 2764.05ZM1064.31 2783.7L1040.54 2818.33L1040.91 2818.71C1042.66 2816.59 1044.84 2814.15 1047.46 2811.41C1050.21 2808.54 1053.14 2805.67 1056.26 2802.8C1059.5 2799.8 1062.87 2796.87 1066.37 2794C1069.86 2791.13 1073.29 2788.57 1076.66 2786.32C1077.29 2785.08 1077.97 2784.08 1078.72 2783.33C1079.47 2782.58 1080.97 2782.21 1083.22 2782.21C1084.59 2782.21 1085.77 2782.27 1086.77 2782.39C1087.9 2782.39 1089.02 2782.45 1090.14 2782.58C1088.02 2784.7 1085.96 2787.32 1083.97 2790.44C1081.97 2793.44 1080.97 2796.74 1080.97 2800.36C1080.97 2803.23 1081.66 2805.48 1083.03 2807.1C1084.53 2808.72 1086.34 2809.54 1088.46 2809.54C1090.33 2809.54 1092.14 2809.16 1093.89 2808.41C1095.76 2807.66 1097.51 2806.73 1099.13 2805.6C1100.75 2804.48 1102.31 2803.3 1103.81 2802.05C1105.31 2800.8 1106.62 2799.68 1107.74 2798.68L1108.86 2799.43C1107.61 2800.67 1106.18 2802.05 1104.56 2803.55C1102.93 2804.92 1101.19 2806.23 1099.31 2807.48C1097.44 2808.72 1095.45 2809.79 1093.32 2810.66C1091.2 2811.41 1089.02 2811.78 1086.77 2811.78C1082.78 2811.78 1079.53 2810.6 1077.04 2808.23C1074.67 2805.73 1073.48 2802.3 1073.48 2797.93C1073.48 2794.93 1074.17 2792.25 1075.54 2789.88L1075.17 2789.51C1070.05 2793 1064.43 2797.62 1058.32 2803.36C1052.2 2808.97 1045.71 2815.65 1038.85 2823.39C1036.36 2826.13 1033.73 2829.75 1030.99 2834.25C1028.37 2838.74 1026.06 2843.36 1024.06 2848.1H1011.9C1018.63 2837.37 1025.37 2826.7 1032.11 2816.09C1038.85 2805.48 1045.78 2794.68 1052.89 2783.7H1064.31ZM1191.6 2800.74C1188.61 2804.11 1185.24 2806.79 1181.49 2808.79C1177.75 2810.78 1174.07 2811.78 1170.45 2811.78C1166.96 2811.78 1163.96 2811.03 1161.47 2809.54C1158.97 2807.91 1157.03 2806.04 1155.66 2803.92H1155.29C1154.04 2808.66 1151.73 2813.72 1148.36 2819.08C1144.99 2824.45 1140.94 2829.38 1136.19 2833.87C1131.58 2838.36 1126.46 2842.11 1120.84 2845.1C1115.23 2848.1 1109.49 2849.6 1103.62 2849.6C1098.26 2849.6 1094.2 2848.04 1091.45 2844.92C1088.71 2841.8 1087.34 2837.61 1087.34 2832.37C1087.34 2829.63 1088.02 2826.45 1089.4 2822.83C1090.77 2819.21 1092.64 2815.59 1095.01 2811.97C1097.51 2808.23 1100.38 2804.61 1103.62 2801.11C1106.99 2797.49 1110.61 2794.31 1114.48 2791.56C1118.35 2788.69 1122.4 2786.45 1126.65 2784.83C1131.01 2783.08 1135.38 2782.21 1139.75 2782.21C1144.87 2782.21 1148.8 2783.7 1151.54 2786.7C1154.41 2789.69 1155.97 2793.56 1156.22 2798.3C1156.47 2801.17 1157.78 2803.86 1160.15 2806.35C1162.65 2808.72 1166.02 2809.91 1170.26 2809.91C1174.01 2809.91 1177.5 2808.97 1180.75 2807.1C1184.12 2805.23 1187.24 2802.8 1190.11 2799.8L1191.6 2800.74ZM1097.44 2836.87C1097.44 2840.11 1098.07 2842.67 1099.32 2844.54C1100.56 2846.41 1102.44 2847.35 1104.93 2847.35C1108.3 2847.35 1111.61 2846.48 1114.85 2844.73C1118.22 2842.86 1121.41 2840.49 1124.4 2837.61C1127.52 2834.62 1130.39 2831.25 1133.01 2827.51C1135.63 2823.76 1137.88 2819.89 1139.75 2815.9C1141.75 2811.91 1143.31 2808.04 1144.43 2804.29C1145.55 2800.43 1146.12 2796.93 1146.12 2793.81C1146.12 2791.19 1145.43 2789.01 1144.06 2787.26C1142.81 2785.39 1140.81 2784.45 1138.07 2784.45C1135.45 2784.45 1132.64 2785.33 1129.64 2787.07C1126.65 2788.69 1123.59 2790.88 1120.47 2793.62C1117.47 2796.37 1114.6 2799.55 1111.86 2803.17C1109.11 2806.79 1106.62 2810.53 1104.37 2814.4C1102.25 2818.27 1100.56 2822.14 1099.32 2826.01C1098.07 2829.88 1097.44 2833.5 1097.44 2836.87ZM1253.44 2801.11C1250.57 2805.73 1246.76 2810.72 1242.02 2816.09C1237.4 2821.33 1232.35 2826.26 1226.86 2830.88C1220.12 2836.49 1213.38 2841.05 1206.64 2844.54C1199.9 2847.91 1193.29 2849.6 1186.8 2849.6C1182.18 2849.6 1178.31 2848.41 1175.19 2846.04C1172.07 2843.54 1170.51 2839.92 1170.51 2835.18C1170.51 2829.19 1172.2 2823.08 1175.57 2816.84C1179.06 2810.6 1183.37 2804.92 1188.48 2799.8C1193.73 2794.56 1199.4 2790.32 1205.52 2787.07C1211.76 2783.83 1217.62 2782.21 1223.12 2782.21C1226.73 2782.21 1229.85 2782.89 1232.47 2784.26C1235.22 2785.51 1236.59 2787.76 1236.59 2791C1236.59 2792.5 1236.16 2793.75 1235.28 2794.75C1234.53 2795.75 1233.54 2796.56 1232.29 2797.18C1231.16 2797.8 1229.85 2798.3 1228.36 2798.68C1226.98 2798.93 1225.74 2799.12 1224.61 2799.24C1225.11 2797.99 1225.55 2796.74 1225.92 2795.5C1226.3 2794.12 1226.48 2792.75 1226.48 2791.38C1226.48 2786.76 1224.3 2784.45 1219.93 2784.45C1216.69 2784.45 1212.82 2786.07 1208.33 2789.32C1203.96 2792.44 1199.78 2796.43 1195.78 2801.3C1191.92 2806.17 1188.61 2811.53 1185.86 2817.4C1183.12 2823.26 1181.75 2828.94 1181.75 2834.43C1181.75 2837.8 1182.49 2840.67 1183.99 2843.04C1185.61 2845.41 1188.05 2846.6 1191.29 2846.6C1195.66 2846.6 1200.65 2845.16 1206.27 2842.29C1212.01 2839.42 1217.56 2835.87 1222.93 2831.62C1228.54 2827.26 1233.91 2822.26 1239.03 2816.65C1244.27 2810.91 1248.64 2805.35 1252.13 2799.99L1253.44 2801.11ZM1315.59 2718.56L1249.32 2817.02L1249.7 2817.4C1252.19 2814.28 1255.13 2810.72 1258.5 2806.73C1261.87 2802.61 1265.48 2798.74 1269.35 2795.12C1273.35 2791.5 1277.53 2788.44 1281.9 2785.95C1286.26 2783.45 1290.63 2782.21 1295 2782.21C1302.61 2782.21 1306.42 2786.01 1306.42 2793.62C1306.42 2795.62 1305.67 2797.99 1304.17 2800.74C1302.8 2803.48 1300.99 2806.42 1298.74 2809.54C1296.62 2812.53 1294.31 2815.59 1291.82 2818.71C1289.32 2821.83 1286.95 2824.89 1284.7 2827.88C1282.58 2830.75 1280.77 2833.5 1279.27 2836.12C1277.9 2838.61 1277.22 2840.73 1277.22 2842.48C1277.22 2843.85 1277.59 2845.04 1278.34 2846.04C1279.21 2846.91 1280.34 2847.35 1281.71 2847.35C1284.58 2847.35 1287.7 2846.48 1291.07 2844.73C1294.56 2842.86 1298.12 2840.49 1301.74 2837.61C1305.48 2834.62 1309.16 2831.31 1312.78 2827.69C1316.4 2824.07 1319.71 2820.52 1322.7 2817.02C1325.82 2813.4 1328.57 2810.03 1330.94 2806.91C1333.44 2803.67 1335.25 2801.05 1336.37 2799.05L1337.49 2799.43C1336.12 2801.8 1334.19 2804.67 1331.69 2808.04C1329.19 2811.41 1326.32 2814.96 1323.08 2818.71C1319.96 2822.45 1316.53 2826.2 1312.78 2829.94C1309.16 2833.56 1305.48 2836.87 1301.74 2839.86C1298.12 2842.73 1294.5 2845.1 1290.88 2846.97C1287.26 2848.72 1283.89 2849.6 1280.77 2849.6C1277.53 2849.6 1274.84 2848.6 1272.72 2846.6C1270.73 2844.6 1269.73 2841.86 1269.73 2838.36C1269.73 2835.87 1270.41 2833.12 1271.79 2830.13C1273.28 2827.13 1275.09 2824.14 1277.22 2821.14C1279.46 2818.02 1281.83 2814.96 1284.33 2811.97C1286.83 2808.85 1289.13 2805.92 1291.26 2803.17C1293.5 2800.43 1295.31 2797.93 1296.68 2795.68C1298.18 2793.31 1298.93 2791.32 1298.93 2789.69C1298.93 2787.7 1298.37 2786.32 1297.25 2785.57C1296.12 2784.83 1294.75 2784.45 1293.13 2784.45C1290.01 2784.45 1286.51 2785.64 1282.64 2788.01C1278.9 2790.25 1274.97 2793.25 1270.85 2796.99C1266.86 2800.74 1262.86 2804.98 1258.87 2809.72C1254.88 2814.34 1251.07 2819.02 1247.45 2823.76C1243.96 2828.5 1240.84 2833 1238.09 2837.24C1235.47 2841.48 1233.41 2845.1 1231.91 2848.1H1219.75C1226.61 2837.37 1233.66 2826.45 1240.9 2815.34C1248.14 2804.23 1255.31 2793.19 1262.43 2782.21C1269.67 2771.22 1276.72 2760.43 1283.58 2749.82C1290.44 2739.09 1296.93 2728.85 1303.05 2719.12L1315.59 2718.56ZM1357.21 2783.7C1352.34 2790.32 1347.66 2796.62 1343.17 2802.61C1338.68 2808.6 1334.69 2814.09 1331.19 2819.08C1327.7 2824.07 1324.89 2828.44 1322.77 2832.19C1320.77 2835.81 1319.77 2838.68 1319.77 2840.8C1319.77 2842.79 1320.27 2844.29 1321.27 2845.29C1322.27 2846.16 1323.58 2846.6 1325.2 2846.6C1327.57 2846.6 1330.13 2845.85 1332.88 2844.35C1335.75 2842.86 1338.62 2840.92 1341.49 2838.55C1344.48 2836.18 1347.35 2833.56 1350.1 2830.69C1352.97 2827.82 1355.59 2825.01 1357.96 2822.26C1360.46 2819.39 1362.58 2816.77 1364.32 2814.4C1366.2 2812.03 1367.57 2810.16 1368.44 2808.79L1384.92 2783.7H1397.83C1391.09 2792.94 1385.35 2800.8 1380.61 2807.29C1375.99 2813.65 1372.19 2819.08 1369.19 2823.58C1366.32 2828.07 1364.26 2831.75 1363.01 2834.62C1361.77 2837.37 1361.14 2839.8 1361.14 2841.92C1361.14 2843.42 1361.58 2844.73 1362.45 2845.85C1363.33 2846.85 1364.57 2847.35 1366.2 2847.35C1368.69 2847.35 1371.56 2846.48 1374.81 2844.73C1378.05 2842.86 1381.42 2840.49 1384.92 2837.61C1388.41 2834.62 1391.84 2831.31 1395.21 2827.69C1398.71 2823.95 1401.95 2820.27 1404.95 2816.65C1408.07 2813.03 1410.87 2809.66 1413.37 2806.54C1415.87 2803.3 1417.8 2800.67 1419.17 2798.68L1421.04 2799.24C1419.55 2801.36 1417.55 2804.11 1415.05 2807.48C1412.56 2810.72 1409.75 2814.22 1406.63 2817.96C1403.51 2821.58 1400.2 2825.32 1396.71 2829.19C1393.21 2832.93 1389.6 2836.3 1385.85 2839.3C1382.23 2842.29 1378.61 2844.79 1374.99 2846.79C1371.5 2848.66 1368.19 2849.6 1365.07 2849.6C1361.58 2849.6 1358.77 2848.66 1356.65 2846.79C1354.65 2844.79 1353.65 2842.17 1353.65 2838.93C1353.65 2836.43 1354.03 2834.06 1354.78 2831.81C1355.65 2829.44 1356.27 2827.94 1356.65 2827.32L1356.27 2826.94C1353.65 2829.94 1350.91 2832.81 1348.04 2835.56C1345.17 2838.3 1342.3 2840.73 1339.43 2842.86C1336.56 2844.85 1333.62 2846.48 1330.63 2847.72C1327.76 2848.97 1324.89 2849.6 1322.02 2849.6C1318.02 2849.6 1315.15 2848.72 1313.41 2846.97C1311.66 2845.1 1310.79 2842.92 1310.79 2840.42C1310.79 2837.3 1311.66 2833.93 1313.41 2830.31C1315.03 2826.7 1317.34 2822.64 1320.33 2818.15C1323.33 2813.65 1326.89 2808.6 1331 2802.98C1335.25 2797.37 1339.86 2790.94 1344.86 2783.7H1357.21ZM1438.52 2783.7L1414.74 2818.33L1415.12 2818.71C1416.86 2816.59 1419.05 2814.15 1421.67 2811.41C1424.41 2808.54 1427.35 2805.67 1430.47 2802.8C1433.71 2799.8 1437.08 2796.87 1440.58 2794C1444.07 2791.13 1447.5 2788.57 1450.87 2786.32C1451.5 2785.08 1452.18 2784.08 1452.93 2783.33C1453.68 2782.58 1455.18 2782.21 1457.42 2782.21C1458.8 2782.21 1459.98 2782.27 1460.98 2782.39C1462.1 2782.39 1463.23 2782.45 1464.35 2782.58C1462.23 2784.7 1460.17 2787.32 1458.17 2790.44C1456.17 2793.44 1455.18 2796.74 1455.18 2800.36C1455.18 2803.23 1455.86 2805.48 1457.24 2807.1C1458.73 2808.72 1460.54 2809.54 1462.66 2809.54C1464.54 2809.54 1466.35 2809.16 1468.09 2808.41C1469.96 2807.66 1471.71 2806.73 1473.33 2805.6C1474.96 2804.48 1476.52 2803.3 1478.01 2802.05C1479.51 2800.8 1480.82 2799.68 1481.95 2798.68L1483.07 2799.43C1481.82 2800.67 1480.39 2802.05 1478.76 2803.55C1477.14 2804.92 1475.39 2806.23 1473.52 2807.48C1471.65 2808.72 1469.65 2809.79 1467.53 2810.66C1465.41 2811.41 1463.23 2811.78 1460.98 2811.78C1456.99 2811.78 1453.74 2810.6 1451.25 2808.23C1448.87 2805.73 1447.69 2802.3 1447.69 2797.93C1447.69 2794.93 1448.38 2792.25 1449.75 2789.88L1449.37 2789.51C1444.26 2793 1438.64 2797.62 1432.53 2803.36C1426.41 2808.97 1419.92 2815.65 1413.06 2823.39C1410.56 2826.13 1407.94 2829.75 1405.2 2834.25C1402.57 2838.74 1400.27 2843.36 1398.27 2848.1H1386.1C1392.84 2837.37 1399.58 2826.7 1406.32 2816.09C1413.06 2805.48 1419.98 2794.68 1427.1 2783.7H1438.52ZM1515.45 2789.69C1515.45 2787.95 1514.96 2786.64 1513.96 2785.76C1513.08 2784.89 1511.96 2784.45 1510.59 2784.45C1507.97 2784.45 1505.1 2785.51 1501.98 2787.63C1498.98 2789.63 1495.99 2792.19 1492.99 2795.31C1490 2798.3 1487.25 2801.55 1484.75 2805.04C1482.38 2808.54 1480.57 2811.66 1479.33 2814.4C1482.07 2813.9 1485.5 2812.97 1489.62 2811.59C1493.74 2810.1 1497.67 2808.29 1501.42 2806.17C1505.28 2804.04 1508.59 2801.61 1511.34 2798.87C1514.08 2796 1515.45 2792.94 1515.45 2789.69ZM1545.78 2799.61C1543.91 2802.73 1541.54 2806.17 1538.67 2809.91C1535.92 2813.65 1532.74 2817.4 1529.12 2821.14C1525.63 2824.76 1521.82 2828.32 1517.7 2831.81C1513.71 2835.18 1509.53 2838.24 1505.16 2840.98C1500.79 2843.6 1496.36 2845.73 1491.87 2847.35C1487.5 2848.85 1483.19 2849.6 1478.95 2849.6C1473.71 2849.6 1469.65 2848.28 1466.78 2845.66C1463.91 2842.92 1462.48 2839.05 1462.48 2834.06C1462.48 2828.57 1464.1 2822.83 1467.35 2816.84C1470.72 2810.72 1474.96 2805.11 1480.07 2799.99C1485.19 2794.87 1490.81 2790.63 1496.92 2787.26C1503.04 2783.89 1508.9 2782.21 1514.52 2782.21C1517.64 2782.21 1520.07 2782.89 1521.82 2784.26C1523.57 2785.51 1524.44 2787.38 1524.44 2789.88C1524.44 2792.88 1522.82 2795.81 1519.57 2798.68C1516.33 2801.42 1512.33 2803.98 1507.59 2806.35C1502.98 2808.6 1497.98 2810.66 1492.62 2812.53C1487.25 2814.28 1482.51 2815.59 1478.39 2816.46C1477.02 2818.96 1475.89 2821.77 1475.02 2824.89C1474.15 2828.01 1473.71 2831.13 1473.71 2834.25C1473.71 2835.74 1473.84 2837.24 1474.08 2838.74C1474.46 2840.11 1474.96 2841.42 1475.58 2842.67C1476.33 2843.79 1477.27 2844.73 1478.39 2845.48C1479.64 2846.23 1481.14 2846.6 1482.88 2846.6C1487 2846.6 1491.81 2845.29 1497.3 2842.67C1502.91 2839.92 1508.59 2836.3 1514.33 2831.81C1520.07 2827.32 1525.56 2822.2 1530.8 2816.46C1536.05 2810.72 1540.54 2804.79 1544.28 2798.68L1545.78 2799.61Z" fill="#514B4D"/>
</svg>
