<svg width="445" height="323" viewBox="0 0 445 323" fill="none" xmlns="http://www.w3.org/2000/svg">
<rect width="445" height="323" fill="#FCFBF7"/>
<path d="M41.43 31.1175C41.3112 29.9739 40.8954 29.1497 40.1825 28.6448C39.4845 28.125 38.586 27.8651 37.4871 27.8651C37.0415 27.8651 36.6034 27.9096 36.1727 27.9987C35.7421 28.0878 35.3559 28.2364 35.0144 28.4443C34.6876 28.6522 34.4203 28.9344 34.2124 29.2908C34.0193 29.6324 33.9228 30.063 33.9228 30.5828C33.9228 31.0729 34.0639 31.4739 34.3461 31.7858C34.6431 32.0828 35.0292 32.3278 35.5044 32.5209C35.9945 32.714 36.544 32.8773 37.1529 33.011C37.7618 33.1298 38.3781 33.2635 39.0019 33.412C39.6405 33.5605 40.2642 33.7387 40.8731 33.9466C41.482 34.1397 42.0241 34.407 42.4993 34.7486C42.9894 35.0901 43.3755 35.5208 43.6577 36.0406C43.9547 36.5604 44.1032 37.2139 44.1032 38.001C44.1032 38.8475 43.9102 39.5752 43.524 40.1841C43.1528 40.7781 42.6701 41.2682 42.0761 41.6543C41.482 42.0256 40.8137 42.2929 40.0712 42.4563C39.3435 42.6345 38.6157 42.7236 37.888 42.7236C36.997 42.7236 36.1505 42.6122 35.3485 42.3895C34.5614 42.1667 33.8634 41.8325 33.2545 41.387C32.6605 40.9266 32.1852 40.3474 31.8288 39.6494C31.4872 38.9366 31.3164 38.0975 31.3164 37.1322H33.3213C33.3213 37.8005 33.4476 38.3797 33.7 38.8697C33.9673 39.345 34.3089 39.7385 34.7248 40.0504C35.1554 40.3623 35.653 40.5925 36.2173 40.741C36.7816 40.8895 37.3608 40.9638 37.9549 40.9638C38.4301 40.9638 38.9053 40.9192 39.3806 40.8301C39.8707 40.741 40.3088 40.5925 40.6949 40.3846C41.081 40.1618 41.3929 39.8648 41.6305 39.4935C41.8681 39.1222 41.987 38.647 41.987 38.0678C41.987 37.5183 41.8384 37.0728 41.5414 36.7312C41.2592 36.3896 40.8731 36.1149 40.383 35.907C39.9078 35.6842 39.3657 35.506 38.7568 35.3723C38.1479 35.2387 37.5242 35.105 36.8856 34.9713C36.2618 34.8228 35.6455 34.6595 35.0366 34.4812C34.4277 34.2882 33.8782 34.0431 33.3882 33.7461C32.9129 33.4342 32.5268 33.0407 32.2298 32.5655C31.9476 32.0754 31.8065 31.4665 31.8065 30.7388C31.8065 29.9368 31.9699 29.2462 32.2966 28.667C32.6233 28.073 33.054 27.5903 33.5886 27.2191C34.1381 26.8329 34.7545 26.5507 35.4376 26.3725C36.1356 26.1795 36.8485 26.0829 37.5762 26.0829C38.393 26.0829 39.1504 26.1795 39.8484 26.3725C40.5464 26.5656 41.1553 26.87 41.6751 27.2859C42.2097 27.7017 42.6255 28.2289 42.9226 28.8675C43.2344 29.4913 43.4052 30.2413 43.4349 31.1175H41.43ZM50.2836 28.2438H44.9818V26.4616H57.7018V28.2438H52.3999V42.3672H50.2836V28.2438ZM59.4665 26.4616H70.4489V28.2438H61.5828V33.3006H69.8474V35.0827H61.5828V40.5851H70.5157V42.3672H59.4665V26.4616ZM75.2011 34.0803H79.3446C80.5475 34.0951 81.4237 33.8501 81.9732 33.3451C82.5376 32.8402 82.8197 32.1125 82.8197 31.162C82.8197 30.2115 82.5376 29.4913 81.9732 29.0012C81.4237 28.4962 80.5475 28.2438 79.3446 28.2438H75.2011V34.0803ZM73.0848 26.4616H80.0574C81.6614 26.4616 82.8717 26.8775 83.6885 27.7091C84.5202 28.5259 84.936 29.6769 84.936 31.162C84.936 32.6471 84.5202 33.8055 83.6885 34.6372C82.8717 35.4688 81.6614 35.8772 80.0574 35.8624H75.2011V42.3672H73.0848V26.4616ZM93.819 26.4616H95.9353V42.3672H93.819V26.4616ZM99.4726 26.4616H101.723L110.099 39.3598H110.143V26.4616H112.148V42.3672H109.831L101.522 29.6027H101.477V42.3672H99.4726V26.4616ZM119.18 28.2438H113.878V26.4616H126.598V28.2438H121.297V42.3672H119.18V28.2438ZM129.588 34.4144C129.588 35.2164 129.692 36.0109 129.9 36.798C130.108 37.5703 130.435 38.2683 130.88 38.892C131.326 39.5158 131.898 40.0207 132.596 40.4068C133.294 40.7781 134.125 40.9638 135.091 40.9638C136.056 40.9638 136.888 40.7781 137.586 40.4068C138.284 40.0207 138.855 39.5158 139.301 38.892C139.747 38.2683 140.073 37.5703 140.281 36.798C140.489 36.0109 140.593 35.2164 140.593 34.4144C140.593 33.6125 140.489 32.8253 140.281 32.0531C140.073 31.266 139.747 30.5606 139.301 29.9368C138.855 29.3131 138.284 28.8155 137.586 28.4443C136.888 28.0581 136.056 27.8651 135.091 27.8651C134.125 27.8651 133.294 28.0581 132.596 28.4443C131.898 28.8155 131.326 29.3131 130.88 29.9368C130.435 30.5606 130.108 31.266 129.9 32.0531C129.692 32.8253 129.588 33.6125 129.588 34.4144ZM127.472 34.4144C127.472 33.3303 127.628 32.2907 127.94 31.2957C128.267 30.2858 128.749 29.3947 129.388 28.6225C130.027 27.8502 130.821 27.2339 131.772 26.7735C132.722 26.3131 133.828 26.0829 135.091 26.0829C136.353 26.0829 137.459 26.3131 138.41 26.7735C139.36 27.2339 140.155 27.8502 140.794 28.6225C141.432 29.3947 141.907 30.2858 142.219 31.2957C142.546 32.2907 142.709 33.3303 142.709 34.4144C142.709 35.4985 142.546 36.5456 142.219 37.5554C141.907 38.5505 141.432 39.4341 140.794 40.2064C140.155 40.9786 139.36 41.5949 138.41 42.0553C137.459 42.5008 136.353 42.7236 135.091 42.7236C133.828 42.7236 132.722 42.5008 131.772 42.0553C130.821 41.5949 130.027 40.9786 129.388 40.2064C128.749 39.4341 128.267 38.5505 127.94 37.5554C127.628 36.5456 127.472 35.4985 127.472 34.4144ZM152.713 34.4144C152.713 35.2164 152.817 36.0109 153.025 36.798C153.233 37.5703 153.56 38.2683 154.006 38.892C154.451 39.5158 155.023 40.0207 155.721 40.4068C156.419 40.7781 157.251 40.9638 158.216 40.9638C159.181 40.9638 160.013 40.7781 160.711 40.4068C161.409 40.0207 161.981 39.5158 162.426 38.892C162.872 38.2683 163.198 37.5703 163.406 36.798C163.614 36.0109 163.718 35.2164 163.718 34.4144C163.718 33.6125 163.614 32.8253 163.406 32.0531C163.198 31.266 162.872 30.5606 162.426 29.9368C161.981 29.3131 161.409 28.8155 160.711 28.4443C160.013 28.0581 159.181 27.8651 158.216 27.8651C157.251 27.8651 156.419 28.0581 155.721 28.4443C155.023 28.8155 154.451 29.3131 154.006 29.9368C153.56 30.5606 153.233 31.266 153.025 32.0531C152.817 32.8253 152.713 33.6125 152.713 34.4144ZM150.597 34.4144C150.597 33.3303 150.753 32.2907 151.065 31.2957C151.392 30.2858 151.874 29.3947 152.513 28.6225C153.152 27.8502 153.946 27.2339 154.897 26.7735C155.847 26.3131 156.953 26.0829 158.216 26.0829C159.478 26.0829 160.585 26.3131 161.535 26.7735C162.486 27.2339 163.28 27.8502 163.919 28.6225C164.557 29.3947 165.032 30.2858 165.344 31.2957C165.671 32.2907 165.834 33.3303 165.834 34.4144C165.834 35.4985 165.671 36.5456 165.344 37.5554C165.032 38.5505 164.557 39.4341 163.919 40.2064C163.28 40.9786 162.486 41.5949 161.535 42.0553C160.585 42.5008 159.478 42.7236 158.216 42.7236C156.953 42.7236 155.847 42.5008 154.897 42.0553C153.946 41.5949 153.152 40.9786 152.513 40.2064C151.874 39.4341 151.392 38.5505 151.065 37.5554C150.753 36.5456 150.597 35.4985 150.597 34.4144ZM181.111 36.6198C181.111 38.6544 180.569 40.1841 179.485 41.2088C178.401 42.2187 176.856 42.7236 174.851 42.7236C172.802 42.7236 171.198 42.241 170.04 41.2756C168.896 40.2955 168.324 38.7435 168.324 36.6198V26.4616H170.441V36.6198C170.441 38.0455 170.819 39.1296 171.577 39.8722C172.334 40.5999 173.426 40.9638 174.851 40.9638C176.203 40.9638 177.227 40.5999 177.925 39.8722C178.638 39.1296 178.995 38.0455 178.995 36.6198V26.4616H181.111V36.6198ZM184.49 26.4616H191.975C193.49 26.4616 194.67 26.8329 195.517 27.5755C196.378 28.318 196.809 29.3353 196.809 30.6274C196.809 31.5927 196.586 32.4392 196.141 33.1669C195.71 33.8946 195.012 34.3921 194.047 34.6595V34.704C194.507 34.7931 194.878 34.9416 195.16 35.1495C195.458 35.3575 195.688 35.6099 195.851 35.907C196.029 36.1891 196.156 36.5084 196.23 36.8648C196.319 37.2213 196.386 37.5926 196.43 37.9787C196.46 38.3648 196.482 38.7584 196.497 39.1593C196.512 39.5603 196.549 39.9539 196.608 40.34C196.668 40.7261 196.75 41.0974 196.854 41.4538C196.972 41.7954 197.143 42.0999 197.366 42.3672H195.005C194.856 42.2038 194.752 41.9811 194.693 41.6989C194.648 41.4167 194.618 41.1048 194.604 40.7633C194.589 40.4068 194.574 40.0281 194.559 39.6272C194.544 39.2262 194.5 38.8326 194.425 38.4465C194.366 38.0604 194.292 37.6965 194.203 37.3549C194.113 36.9985 193.972 36.6941 193.779 36.4416C193.586 36.1743 193.334 35.9664 193.022 35.8178C192.71 35.6545 192.294 35.5728 191.774 35.5728H186.606V42.3672H184.49V26.4616ZM191.017 33.7907C191.507 33.7907 191.975 33.7535 192.42 33.6793C192.866 33.605 193.252 33.4639 193.579 33.256C193.92 33.0333 194.188 32.7437 194.381 32.3872C194.589 32.016 194.693 31.5407 194.693 30.9615C194.693 30.1596 194.47 29.5061 194.024 29.0012C193.579 28.4962 192.859 28.2438 191.864 28.2438H186.606V33.7907H191.017ZM220.308 42.3672H218.103L214.472 29.0012H214.427L210.752 42.3672H208.546L204.47 26.4616H206.631L209.749 39.694H209.794L213.358 26.4616H215.653L219.172 39.694H219.217L222.447 26.4616H224.563L220.308 42.3672ZM227.788 34.4144C227.788 35.2164 227.892 36.0109 228.1 36.798C228.308 37.5703 228.635 38.2683 229.081 38.892C229.526 39.5158 230.098 40.0207 230.796 40.4068C231.494 40.7781 232.326 40.9638 233.291 40.9638C234.256 40.9638 235.088 40.7781 235.786 40.4068C236.484 40.0207 237.056 39.5158 237.501 38.892C237.947 38.2683 238.273 37.5703 238.481 36.798C238.689 36.0109 238.793 35.2164 238.793 34.4144C238.793 33.6125 238.689 32.8253 238.481 32.0531C238.273 31.266 237.947 30.5606 237.501 29.9368C237.056 29.3131 236.484 28.8155 235.786 28.4443C235.088 28.0581 234.256 27.8651 233.291 27.8651C232.326 27.8651 231.494 28.0581 230.796 28.4443C230.098 28.8155 229.526 29.3131 229.081 29.9368C228.635 30.5606 228.308 31.266 228.1 32.0531C227.892 32.8253 227.788 33.6125 227.788 34.4144ZM225.672 34.4144C225.672 33.3303 225.828 32.2907 226.14 31.2957C226.467 30.2858 226.949 29.3947 227.588 28.6225C228.227 27.8502 229.021 27.2339 229.972 26.7735C230.922 26.3131 232.028 26.0829 233.291 26.0829C234.553 26.0829 235.66 26.3131 236.61 26.7735C237.561 27.2339 238.355 27.8502 238.994 28.6225C239.632 29.3947 240.107 30.2858 240.419 31.2957C240.746 32.2907 240.909 33.3303 240.909 34.4144C240.909 35.4985 240.746 36.5456 240.419 37.5554C240.107 38.5505 239.632 39.4341 238.994 40.2064C238.355 40.9786 237.561 41.5949 236.61 42.0553C235.66 42.5008 234.553 42.7236 233.291 42.7236C232.028 42.7236 230.922 42.5008 229.972 42.0553C229.021 41.5949 228.227 40.9786 227.588 40.2064C226.949 39.4341 226.467 38.5505 226.14 37.5554C225.828 36.5456 225.672 35.4985 225.672 34.4144ZM243.488 26.4616H250.973C252.488 26.4616 253.669 26.8329 254.515 27.5755C255.377 28.318 255.807 29.3353 255.807 30.6274C255.807 31.5927 255.585 32.4392 255.139 33.1669C254.708 33.8946 254.01 34.3921 253.045 34.6595V34.704C253.505 34.7931 253.877 34.9416 254.159 35.1495C254.456 35.3575 254.686 35.6099 254.849 35.907C255.028 36.1891 255.154 36.5084 255.228 36.8648C255.317 37.2213 255.384 37.5926 255.429 37.9787C255.458 38.3648 255.481 38.7584 255.495 39.1593C255.51 39.5603 255.547 39.9539 255.607 40.34C255.666 40.7261 255.748 41.0974 255.852 41.4538C255.971 41.7954 256.141 42.0999 256.364 42.3672H254.003C253.854 42.2038 253.75 41.9811 253.691 41.6989C253.646 41.4167 253.617 41.1048 253.602 40.7633C253.587 40.4068 253.572 40.0281 253.557 39.6272C253.543 39.2262 253.498 38.8326 253.424 38.4465C253.364 38.0604 253.29 37.6965 253.201 37.3549C253.112 36.9985 252.971 36.6941 252.778 36.4416C252.585 36.1743 252.332 35.9664 252.02 35.8178C251.708 35.6545 251.293 35.5728 250.773 35.5728H245.605V42.3672H243.488V26.4616ZM250.015 33.7907C250.505 33.7907 250.973 33.7535 251.419 33.6793C251.864 33.605 252.25 33.4639 252.577 33.256C252.919 33.0333 253.186 32.7437 253.379 32.3872C253.587 32.016 253.691 31.5407 253.691 30.9615C253.691 30.1596 253.468 29.5061 253.023 29.0012C252.577 28.4962 251.857 28.2438 250.862 28.2438H245.605V33.7907H250.015ZM258.738 26.4616H260.855V40.5851H269.275V42.3672H258.738V26.4616ZM273.233 40.5851H276.753C276.99 40.5851 277.287 40.5702 277.644 40.5405C278 40.4959 278.379 40.4068 278.78 40.2732C279.181 40.1247 279.574 39.9168 279.96 39.6494C280.361 39.3821 280.718 39.0183 281.03 38.5579C281.342 38.0975 281.594 37.5257 281.787 36.8426C281.995 36.1446 282.099 35.3055 282.099 34.3253C282.099 33.3748 282.002 32.5283 281.809 31.7858C281.631 31.0284 281.327 30.3898 280.896 29.87C280.48 29.3353 279.938 28.9344 279.27 28.667C278.602 28.3849 277.777 28.2438 276.797 28.2438H273.233V40.5851ZM271.117 26.4616H276.574C279.025 26.4616 280.911 27.0854 282.233 28.3329C283.554 29.5804 284.215 31.4813 284.215 34.0357C284.215 35.3723 284.067 36.5604 283.77 37.6C283.473 38.6247 283.012 39.4935 282.389 40.2064C281.765 40.9044 280.97 41.439 280.005 41.8103C279.04 42.1815 277.896 42.3672 276.574 42.3672H271.117V26.4616Z" fill="#545454"/>
</svg>
